<?xml version="1.0" encoding="utf-8"?>
<svg id="master-artboard" viewBox="0 0 64 59" version="1.1" xmlns="http://www.w3.org/2000/svg" x="0px" y="0px" style="enable-background:new 0 0 336 235.2;" width="64px" height="59px" xmlns:xlink="http://www.w3.org/1999/xlink"><rect id="ee-background" x="0" y="0" width="64" height="59" style="fill: white; fill-opacity: 0; pointer-events: none;"/><defs><style id="ee-google-fonts">@import url(https://fonts.googleapis.com/css?family=Audiowide:400|Roboto:100,100italic,300,300italic,400,400italic,500,500italic,700,700italic,900,900italic);</style><path d="M 0.4946194887161255 0.5261127352714539 L 58.27153396606445 0.5261127352714539 L 58.27153396606445 24.169565200805664 L 0.4946194887161255 24.169565200805664 Z" id="path-1"/></defs>





















































































































































<g transform="matrix(0.9833332697550455, 0, 0, 0.9833332697550455, 1.0249975815713697, 0.0000019292904198664473)"><title>Logo-modo-noc</title><desc>Created with Sketch.</desc><g id="GIFOS" stroke="none" stroke-width="1" fill="none" fill-rule="evenodd">
        <g id="16-UI-Kit-Modo-Nocturno" transform="translate(-156.000000, -305.000000)">
            <g id="Logo-modo-noc" transform="translate(156.000000, 305.000000)">
                <g id="Group-5">
                    <path d="M 0 -0.00020000000949949026 L 0 59.10843276977539 L 59.1086311340332 59.10843276977539 L 59.1086311340332 46.44229507446289 L 54.8865852355957 46.44229507446289 L 54.8865852355957 54.88638687133789 L 4.222044944763184 54.88638687133789 L 4.222044944763184 4.2218451499938965 L 42.22045135498047 4.2218451499938965 L 42.22045135498047 16.88797950744629 L 54.8865852355957 16.88797950744629 L 54.8865852355957 25.332914352416992 L 59.1086311340332 25.332914352416992 L 59.1086311340332 12.665935516357422 L 46.44249725341797 -0.00020000000949949026 Z" id="Fill-1" fill="#5ED7C6"/>
                    <g id="Group-4" transform="translate(9.000000, 20.000000)">
                        <mask id="mask-2" fill="white">
                            <use xlink:href="#path-1"/>
                        </mask>
                        <g id="Clip-3"/>
                        <text class="single-line-text" dominant-baseline="text-before-edge" style="font-size: 18px; white-space: pre; mask: url('#mask-2'); font-family: Roboto-Black, Roboto; font-weight: 700; fill: rgb(255, 255, 255); color: rgb(255, 255, 255);" y="-17">GIFOS</text>
                    </g>
                </g>
            </g>
        </g>
    </g></g><path d="M 27.328266143798828 48.73067092895508 C 26.694931030273438 49.49066925048828 25.801597595214844 50.08066940307617 24.648265838623047 50.50067138671875 C 23.494932174682617 50.914005279541016 22.21493148803711 51.120670318603516 20.808265686035156 51.120670318603516 C 19.328266143798828 51.120670318603516 18.031599044799805 50.8006706237793 16.91826629638672 50.16067123413086 C 15.804932594299316 49.51400375366211 14.94493293762207 48.57733917236328 14.338265419006348 47.350669860839844 C 13.738265991210938 46.12400436401367 13.428265571594238 44.68400573730469 13.408266067504883 43.030670166015625 L 13.408266067504883 41.870670318603516 C 13.408266067504883 40.164005279541016 13.694931983947754 38.687339782714844 14.268265724182129 37.440670013427734 C 14.841598510742188 36.19400405883789 15.671598434448242 35.24066925048828 16.75826644897461 34.58067321777344 C 17.838266372680664 33.92066955566406 19.10493278503418 33.59067153930664 20.558265686035156 33.59067153930664 C 22.584932327270508 33.59067153930664 24.16826629638672 34.074005126953125 25.308265686035156 35.040672302246094 C 26.448265075683594 36.00733947753906 27.121599197387695 37.41067123413086 27.328266143798828 39.25067138671875 L 23.908266067504883 39.25067138671875 C 23.754932403564453 38.27733612060547 23.408266067504883 37.564002990722656 22.868267059326172 37.11067199707031 C 22.334932327270508 36.6573371887207 21.601598739624023 36.43067169189453 20.66826629638672 36.43067169189453 C 19.468265533447266 36.43067169189453 18.558265686035156 36.88066864013672 17.93826675415039 37.780670166015625 C 17.311599731445312 38.67400360107422 16.994932174682617 40.00733947753906 16.988265991210938 41.780670166015625 L 16.988265991210938 42.870670318603516 C 16.988265991210938 44.664005279541016 17.328266143798828 46.017337799072266 18.00826644897461 46.93067169189453 C 18.681598663330078 47.8440055847168 19.6749324798584 48.3006706237793 20.988265991210938 48.3006706237793 C 22.308265686035156 48.3006706237793 23.251598358154297 48.02067184448242 23.818265914916992 47.460670471191406 L 23.818265914916992 44.51066970825195 L 20.618267059326172 44.51066970825195 L 20.618267059326172 41.93067169189453 L 27.328266143798828 41.93067169189453 L 27.328266143798828 48.73067092895508 ZM 33.91423797607422 50.89067077636719 L 30.404239654541016 50.89067077636719 L 30.404239654541016 33.83067321777344 L 33.91423797607422 33.83067321777344 L 33.91423797607422 50.89067077636719 ZM 47.439613342285156 43.92066955566406 L 40.689613342285156 43.92066955566406 L 40.689613342285156 50.89067077636719 L 37.169612884521484 50.89067077636719 L 37.169612884521484 33.83067321777344 L 48.27961349487305 33.83067321777344 L 48.27961349487305 36.68067169189453 L 40.689613342285156 36.68067169189453 L 40.689613342285156 41.08066940307617 L 47.439613342285156 41.08066940307617 L 47.439613342285156 43.92066955566406 ZM 64.33670043945312 42.75067138671875 C 64.33670043945312 44.42400360107422 64.04003143310547 45.894004821777344 63.44670104980469 47.16067123413086 C 62.85336685180664 48.427337646484375 62.00336456298828 49.40400314331055 60.896697998046875 50.09067153930664 C 59.79003143310547 50.77733612060547 58.52336502075195 51.120670318603516 57.09669876098633 51.120670318603516 C 55.68336486816406 51.120670318603516 54.4200325012207 50.780670166015625 53.30670166015625 50.100669860839844 C 52.20003128051758 49.427337646484375 51.34003448486328 48.45733642578125 50.72669982910156 47.190670013427734 C 50.120033264160156 45.93067169189453 49.8133659362793 44.48067092895508 49.806697845458984 42.84067153930664 L 49.806697845458984 42.00067138671875 C 49.806697845458984 40.32067108154297 50.11003112792969 38.84067153930664 50.716697692871094 37.5606689453125 C 51.31669998168945 36.280670166015625 52.1700325012207 35.3006706237793 53.27669906616211 34.620670318603516 C 54.383365631103516 33.93400573730469 55.646697998046875 33.59067153930664 57.06669998168945 33.59067153930664 C 58.49336624145508 33.59067153930664 59.75669860839844 33.93400573730469 60.8567008972168 34.620670318603516 C 61.9633674621582 35.3006706237793 62.82003402709961 36.280670166015625 63.426700592041016 37.5606689453125 C 64.03336334228516 38.84067153930664 64.33670043945312 40.314002990722656 64.33670043945312 41.98067092895508 L 64.33670043945312 42.75067138671875 M 60.77669906616211 41.970672607421875 C 60.77669906616211 40.18400573730469 60.45669937133789 38.824005126953125 59.81669998168945 37.89067077636719 C 59.1700325012207 36.96400451660156 58.25336456298828 36.50067138671875 57.06669998168945 36.50067138671875 C 55.88669967651367 36.50067138671875 54.97669982910156 36.960670471191406 54.336700439453125 37.88066864013672 C 53.69670104980469 38.79400634765625 53.37336730957031 40.13733673095703 53.36669921875 41.91067123413086 L 53.36669921875 42.75067138671875 C 53.36669921875 44.49066925048828 53.68669891357422 45.84067153930664 54.326698303222656 46.8006706237793 C 54.966697692871094 47.76066970825195 55.89003372192383 48.24066925048828 57.09669876098633 48.24066925048828 C 58.27669906616211 48.24066925048828 59.18336486816406 47.77733612060547 59.81669998168945 46.850669860839844 C 60.44336700439453 45.92400360107422 60.76336669921875 44.574005126953125 60.77669906616211 42.8006706237793 L 60.77669906616211 41.970672607421875 ZM 75.73531341552734 46.41067123413086 C 75.73531341552734 45.75067138671875 75.5019760131836 45.24066925048828 75.03530883789062 44.88066864013672 C 74.56198120117188 44.52733612060547 73.71864318847656 44.15400314331055 72.50531005859375 43.76066970825195 C 71.28530883789062 43.36733627319336 70.31864166259766 42.97733688354492 69.60530853271484 42.59067153930664 C 67.6719741821289 41.54400634765625 66.70530700683594 40.134002685546875 66.70530700683594 38.36067199707031 C 66.70530700683594 37.440670013427734 66.9653091430664 36.620670318603516 67.48531341552734 35.900672912597656 C 67.99864196777344 35.17400360107422 68.74197387695312 34.607337951660156 69.7153091430664 34.20066833496094 C 70.68864440917969 33.79400634765625 71.78197479248047 33.59067153930664 72.99530792236328 33.59067153930664 C 74.2153091430664 33.59067153930664 75.3019790649414 33.814002990722656 76.25531005859375 34.26067352294922 C 77.2086410522461 34.70066833496094 77.94864654541016 35.32067108154297 78.47531127929688 36.120670318603516 C 79.0019760131836 36.927337646484375 79.26531219482422 37.84400177001953 79.26531219482422 38.870670318603516 L 75.74530792236328 38.870670318603516 C 75.74530792236328 38.08400344848633 75.49864196777344 37.474002838134766 75.00531005859375 37.040672302246094 C 74.51864624023438 36.607337951660156 73.82864379882812 36.39067077636719 72.93531036376953 36.39067077636719 C 72.07530975341797 36.39067077636719 71.40864562988281 36.574005126953125 70.93531036376953 36.940670013427734 C 70.45530700683594 37.3006706237793 70.2153091430664 37.77733612060547 70.2153091430664 38.370670318603516 C 70.2153091430664 38.93067169189453 70.49530792236328 39.3973388671875 71.05531311035156 39.77067184448242 C 71.61531066894531 40.144004821777344 72.43864440917969 40.49400329589844 73.52531433105469 40.82067108154297 C 75.52531433105469 41.427337646484375 76.98197937011719 42.17400360107422 77.89530944824219 43.0606689453125 C 78.80864715576172 43.954002380371094 79.26531219482422 45.064002990722656 79.26531219482422 46.39067077636719 C 79.26531219482422 47.86400604248047 78.70530700683594 49.02067184448242 77.58531188964844 49.86067199707031 C 76.47197723388672 50.7006721496582 74.96864318847656 51.120670318603516 73.07530975341797 51.120670318603516 C 71.76197814941406 51.120670318603516 70.56864166259766 50.880672454833984 69.49530792236328 50.40066909790039 C 68.41531372070312 49.92066955566406 67.59197998046875 49.26400375366211 67.02531433105469 48.43067169189453 C 66.4586410522461 47.59733581542969 66.17530822753906 46.62733840942383 66.17530822753906 45.52067184448242 L 69.70530700683594 45.52067184448242 C 69.70530700683594 47.4073371887207 70.82864379882812 48.350669860839844 73.07530975341797 48.350669860839844 C 73.90864562988281 48.350669860839844 74.56198120117188 48.18067169189453 75.03530883789062 47.84067153930664 C 75.5019760131836 47.50067138671875 75.73531341552734 47.02400588989258 75.73531341552734 46.41067123413086 Z" transform="matrix(0.8008802533149719, 0, 0, 0.8008802533149719, -0.8698172569274902, 1.224245548248291)" style="fill: rgb(255, 255, 255); white-space: pre; color: rgb(255, 255, 255);"/></svg>