<?xml version="1.0" encoding="utf-8"?>
<svg id="master-artboard" viewBox="0 0 289.6096496582031 263.805419921875" version="1.1" xmlns="http://www.w3.org/2000/svg" x="0px" y="0px" style="enable-background:new 0 0 1400 980;" width="289.6096496582031px" height="263.805419921875px" xmlns:xlink="http://www.w3.org/1999/xlink"><rect id="ee-background" x="0" y="0" width="289.6096496582031" height="263.805419921875" style="fill: white; fill-opacity: 0; pointer-events: none;"/><defs><style id="ee-google-fonts">@import url(https://fonts.googleapis.com/css?family=Fjalla+One:400|Roboto:100,300,500,700,900,100italic,300italic,400,400italic,500italic,700italic,900italic);</style><style id="style-1">@import url(https://fonts.googleapis.com/css?family=Roboto:100,100italic,300,300italic,400,400italic,500,500italic,700,700italic,900,900italic);</style><path d="M 0.8373792767524719 0.9433435201644897 L 48.52960968017578 0.9433435201644897 L 48.52960968017578 20.459945678710938 L 0.8373792767524719 20.459945678710938 Z" id="path-1"/></defs>

































































































<g transform="matrix(5.376259803771973, 0, 0, 5.376259803771973, 2.8715591430664062, 1.4439399326611806)"><rect id="rect-1" x="0" y="0" width="52.79999923706055" height="48.79999923706055" style="fill: white; fill-opacity: 1; pointer-events: none;"/><g transform="matrix(0.995058536529541, 0, 0, 0.995058536529541, 0.07918711264066758, 0.010514633895255088)"><title>logo-mobile</title><desc>Created with Sketch.</desc><g id="GIFOS" stroke="none" stroke-width="1" fill="none" fill-rule="evenodd">
        <g id="00-UI-Kit" transform="translate(-347.000000, -2463.000000)">
            <g id="logo-mobile" transform="translate(347.000000, 2463.000000)">
                <g id="Group-5">
                    <path d="M 0 -0.00020000000949949026 L 0 48.79130554199219 L 48.79150390625 48.79130554199219 L 48.79150390625 38.33598327636719 L 45.306396484375 38.33598327636719 L 45.306396484375 45.30619812011719 L 3.485107421875 45.30619812011719 L 3.485107421875 3.484907388687134 L 34.85107421875 3.484907388687134 L 34.85107421875 13.940229415893555 L 45.306396484375 13.940229415893555 L 45.306396484375 20.911142349243164 L 48.79150390625 20.911142349243164 L 48.79150390625 10.455121994018555 L 38.336181640625 -0.00020000000949949026 Z" id="Fill-1" fill="#5ED7C6"/>
                    <g id="Group-4" transform="translate(7.000000, 16.000000)">
                        <mask id="mask-2" fill="white">
                            <use xlink:href="#path-1"/>
                        </mask>
                        <g id="Clip-3"/>
                        <text class="single-line-text" dominant-baseline="text-before-edge" style="font-size: 16px; white-space: pre; mask: url('#mask-2'); font-family: Roboto-Black, Roboto; font-weight: 700; fill: rgb(87, 46, 229); color: rgb(87, 46, 229);" y="-15" transform="matrix(0.6239526586526002, 0, 0, 0.6239526586526002, 0, -5.640710120210997)">GIFOS</text>
                    </g>
                </g>
            </g>
        </g>
    </g></g><path d="M 137.91575622558594 92.78340911865234 L 128.36575317382812 92.78340911865234 L 128.36575317382812 75.65341186523438 L 137.91575622558594 75.65341186523438 L 137.91575622558594 77.42340850830078 L 130.3557586669922 77.42340850830078 L 130.3557586669922 82.94340515136719 L 137.45574951171875 82.94340515136719 L 137.45574951171875 84.69340515136719 L 130.3557586669922 84.69340515136719 L 130.3557586669922 91.00341033935547 L 137.91575622558594 91.00341033935547 L 137.91575622558594 92.78340911865234 ZM 150.2019500732422 92.78340911865234 L 150.2019500732422 84.4734115600586 C 150.2019500732422 83.42674255371094 149.96527099609375 82.64674377441406 149.491943359375 82.13340759277344 C 149.01194763183594 81.61341094970703 148.26527404785156 81.35340881347656 147.25193786621094 81.35340881347656 C 145.9052734375 81.35340881347656 144.9219512939453 81.71674346923828 144.30194091796875 82.44340515136719 C 143.67527770996094 83.17007446289062 143.3619384765625 84.37007904052734 143.3619384765625 86.04341125488281 L 143.3619384765625 92.78340911865234 L 141.4119415283203 92.78340911865234 L 141.4119415283203 79.94340515136719 L 142.991943359375 79.94340515136719 L 143.31195068359375 81.69340515136719 L 143.40194702148438 81.69340515136719 C 143.80194091796875 81.06007385253906 144.3619384765625 80.57007598876953 145.08193969726562 80.2234115600586 C 145.80194091796875 79.87673950195312 146.60194396972656 79.70340728759766 147.48194885253906 79.70340728759766 C 149.0286102294922 79.70340728759766 150.19528198242188 80.07674407958984 150.98194885253906 80.82341003417969 C 151.76194763183594 81.57007598876953 152.15194702148438 82.76341247558594 152.15194702148438 84.40341186523438 L 152.15194702148438 92.78340911865234 L 150.2019500732422 92.78340911865234 ZM 160.29080200195312 91.41340637207031 C 160.63746643066406 91.41340637207031 160.97079467773438 91.3867416381836 161.29080200195312 91.33341217041016 C 161.6107940673828 91.2867431640625 161.8641357421875 91.23340606689453 162.05079650878906 91.17340850830078 L 162.05079650878906 92.66340637207031 C 161.83746337890625 92.77007293701172 161.5274658203125 92.85340881347656 161.12078857421875 92.91340637207031 C 160.70745849609375 92.98007202148438 160.33746337890625 93.01341247558594 160.0107879638672 93.01341247558594 C 157.5241241455078 93.01341247558594 156.28079223632812 91.70674133300781 156.28079223632812 89.0934066772461 L 156.28079223632812 81.45340728759766 L 154.4407958984375 81.45340728759766 L 154.4407958984375 80.51341247558594 L 156.28079223632812 79.70340728759766 L 157.10079956054688 76.96340942382812 L 158.2307891845703 76.96340942382812 L 158.2307891845703 79.94340515136719 L 161.96080017089844 79.94340515136719 L 161.96080017089844 81.45340728759766 L 158.2307891845703 81.45340728759766 L 158.2307891845703 89.01341247558594 C 158.2307891845703 89.7867431640625 158.41412353515625 90.38007354736328 158.78079223632812 90.79341125488281 C 159.1474609375 91.20674133300781 159.6508026123047 91.41340637207031 160.29080200195312 91.41340637207031 ZM 170.0425262451172 93.01341247558594 C 168.14251708984375 93.01341247558594 166.64251708984375 92.4367446899414 165.5425262451172 91.28340911865234 C 164.44918823242188 90.13007354736328 163.90252685546875 88.52340698242188 163.90252685546875 86.46340942382812 C 163.90252685546875 84.39674377441406 164.4125213623047 82.75341033935547 165.43252563476562 81.53340911865234 C 166.4525146484375 80.31340789794922 167.81918334960938 79.70340728759766 169.5325164794922 79.70340728759766 C 171.14585876464844 79.70340728759766 172.419189453125 80.23340606689453 173.35252380371094 81.29341125488281 C 174.2925262451172 82.35340881347656 174.7625274658203 83.75007629394531 174.7625274658203 85.48340606689453 L 174.7625274658203 86.71340942382812 L 165.9125213623047 86.71340942382812 C 165.9525146484375 88.22007751464844 166.3358612060547 89.36341094970703 167.06251525878906 90.1434097290039 C 167.7825164794922 90.9300765991211 168.7991943359375 91.32341003417969 170.11251831054688 91.32341003417969 C 171.49252319335938 91.32341003417969 172.85919189453125 91.03340911865234 174.2125244140625 90.45340728759766 L 174.2125244140625 92.18341064453125 C 173.52584838867188 92.48340606689453 172.8758544921875 92.69673919677734 172.2625274658203 92.82341003417969 C 171.64918518066406 92.9500732421875 170.9091796875 93.01341247558594 170.0425262451172 93.01341247558594 M 169.5125274658203 81.33341217041016 C 168.47918701171875 81.33341217041016 167.65585327148438 81.67007446289062 167.0425262451172 82.3434066772461 C 166.42918395996094 83.01673889160156 166.06918334960938 83.94673919677734 165.9625244140625 85.13340759277344 L 172.68252563476562 85.13340759277344 C 172.68252563476562 83.90673828125 172.40585327148438 82.96674346923828 171.85252380371094 82.31340789794922 C 171.30584716796875 81.66007995605469 170.52584838867188 81.33341217041016 169.5125274658203 81.33341217041016 ZM 183.93588256835938 79.70340728759766 C 184.50921630859375 79.70340728759766 185.02255249023438 79.75007629394531 185.47589111328125 79.8434066772461 L 185.2058868408203 81.65341186523438 C 184.67254638671875 81.53340911865234 184.20254516601562 81.4734115600586 183.79588317871094 81.4734115600586 C 182.75588989257812 81.4734115600586 181.8692169189453 81.89674377441406 181.13587951660156 82.743408203125 C 180.39588928222656 83.58341217041016 180.02587890625 84.63340759277344 180.02587890625 85.8934097290039 L 180.02587890625 92.78340911865234 L 178.0758819580078 92.78340911865234 L 178.0758819580078 79.94340515136719 L 179.68588256835938 79.94340515136719 L 179.9058837890625 82.32341003417969 L 179.99588012695312 82.32341003417969 C 180.47589111328125 81.48340606689453 181.05255126953125 80.83674621582031 181.72589111328125 80.38340759277344 C 182.39254760742188 79.9300765991211 183.12921142578125 79.70340728759766 183.93588256835938 79.70340728759766 ZM 192.0653839111328 79.94340515136719 L 194.15538024902344 79.94340515136719 L 196.9653778076172 87.26341247558594 C 197.5853729248047 88.9367446899414 197.96871948242188 90.1434097290039 198.11538696289062 90.88340759277344 L 198.20538330078125 90.88340759277344 C 198.31204223632812 90.48340606689453 198.52537536621094 89.80340576171875 198.8453826904297 88.8434066772461 C 199.1720428466797 87.87673950195312 200.23204040527344 84.91007232666016 202.02537536621094 79.94340515136719 L 204.11538696289062 79.94340515136719 L 198.5953826904297 94.56340789794922 C 198.0487060546875 96.01007843017578 197.40870666503906 97.0367431640625 196.67538452148438 97.6434097290039 C 195.94871520996094 98.25007629394531 195.0553741455078 98.55340576171875 193.99537658691406 98.55340576171875 C 193.3953857421875 98.55340576171875 192.8087158203125 98.48674011230469 192.23538208007812 98.35340881347656 L 192.23538208007812 96.79341125488281 C 192.66204833984375 96.8867416381836 193.1420440673828 96.93341064453125 193.67538452148438 96.93341064453125 C 195.0087127685547 96.93341064453125 195.96205139160156 96.18341064453125 196.53538513183594 94.68341064453125 L 197.24537658691406 92.85340881347656 L 192.0653839111328 79.94340515136719 ZM 217.28778076171875 86.35340881347656 C 217.28778076171875 88.44673919677734 216.76112365722656 90.080078125 215.70779418945312 91.25341033935547 C 214.6477813720703 92.42674255371094 213.1911163330078 93.01341247558594 211.33778381347656 93.01341247558594 C 210.1844482421875 93.01341247558594 209.16445922851562 92.74674224853516 208.2777862548828 92.21340942382812 C 207.38446044921875 91.67340850830078 206.6944580078125 90.90007781982422 206.20779418945312 89.8934097290039 C 205.727783203125 88.88007354736328 205.48779296875 87.7000732421875 205.48779296875 86.35340881347656 C 205.48779296875 84.26007843017578 206.01112365722656 82.62673950195312 207.0577850341797 81.45340728759766 C 208.1044464111328 80.2867431640625 209.5577850341797 79.70340728759766 211.41778564453125 79.70340728759766 C 213.21112060546875 79.70340728759766 214.63778686523438 80.30007934570312 215.69778442382812 81.493408203125 C 216.75778198242188 82.69340515136719 217.28778076171875 84.31340789794922 217.28778076171875 86.35340881347656 M 207.49778747558594 86.35340881347656 C 207.49778747558594 87.993408203125 207.82778930664062 89.243408203125 208.48779296875 90.10340881347656 C 209.14111328125 90.96340942382812 210.1044464111328 91.3934097290039 211.37779235839844 91.3934097290039 C 212.651123046875 91.3934097290039 213.61778259277344 90.96340942382812 214.2777862548828 90.10340881347656 C 214.9377899169922 89.25007629394531 215.26779174804688 88.00007629394531 215.26779174804688 86.35340881347656 C 215.26779174804688 84.72007751464844 214.9377899169922 83.48007202148438 214.2777862548828 82.63340759277344 C 213.61778259277344 81.78007507324219 212.6444549560547 81.35340881347656 211.3577880859375 81.35340881347656 C 210.08445739746094 81.35340881347656 209.12445068359375 81.77340698242188 208.477783203125 82.61341094970703 C 207.82444763183594 83.44673919677734 207.49778747558594 84.69340515136719 207.49778747558594 86.35340881347656 ZM 222.5222930908203 79.94340515136719 L 222.5222930908203 88.27340698242188 C 222.5222930908203 89.32007598876953 222.76229858398438 90.1000747680664 223.24229431152344 90.61341094970703 C 223.7156219482422 91.13340759277344 224.45895385742188 91.3934097290039 225.4722900390625 91.3934097290039 C 226.81895446777344 91.3934097290039 227.8022918701172 91.02340698242188 228.4222869873047 90.28340911865234 C 229.04229736328125 89.55007934570312 229.352294921875 88.35340881347656 229.352294921875 86.69340515136719 L 229.352294921875 79.94340515136719 L 231.3022918701172 79.94340515136719 L 231.3022918701172 92.78340911865234 L 229.69229125976562 92.78340911865234 L 229.41229248046875 91.06340789794922 L 229.31228637695312 91.06340789794922 C 228.91229248046875 91.69673919677734 228.3589630126953 92.1800765991211 227.6522979736328 92.51341247558594 C 226.9456329345703 92.84674072265625 226.1389617919922 93.01341247558594 225.2322998046875 93.01341247558594 C 223.66563415527344 93.01341247558594 222.49562072753906 92.6434097290039 221.7222900390625 91.90341186523438 C 220.94229125976562 91.16340637207031 220.5522918701172 89.97674560546875 220.5522918701172 88.3434066772461 L 220.5522918701172 79.94340515136719 L 222.5222930908203 79.94340515136719 ZM 241.28114318847656 79.70340728759766 C 241.85447692871094 79.70340728759766 242.36781311035156 79.75007629394531 242.82115173339844 79.8434066772461 L 242.5511474609375 81.65341186523438 C 242.01780700683594 81.53340911865234 241.5478057861328 81.4734115600586 241.14114379882812 81.4734115600586 C 240.1011505126953 81.4734115600586 239.2144775390625 81.89674377441406 238.48114013671875 82.743408203125 C 237.74114990234375 83.58341217041016 237.3711395263672 84.63340759277344 237.3711395263672 85.8934097290039 L 237.3711395263672 92.78340911865234 L 235.421142578125 92.78340911865234 L 235.421142578125 79.94340515136719 L 237.03114318847656 79.94340515136719 L 237.2511444091797 82.32341003417969 L 237.3411407470703 82.32341003417969 C 237.82115173339844 81.48340606689453 238.39781188964844 80.83674621582031 239.07115173339844 80.38340759277344 C 239.73780822753906 79.9300765991211 240.47447204589844 79.70340728759766 241.28114318847656 79.70340728759766 ZM 255.60064697265625 91.41340637207031 C 255.9473114013672 91.41340637207031 256.2806396484375 91.3867416381836 256.60064697265625 91.33341217041016 C 256.920654296875 91.2867431640625 257.1739807128906 91.23340606689453 257.3606262207031 91.17340850830078 L 257.3606262207031 92.66340637207031 C 257.1473083496094 92.77007293701172 256.8373107910156 92.85340881347656 256.4306335449219 92.91340637207031 C 256.0173034667969 92.98007202148438 255.64730834960938 93.01341247558594 255.3206329345703 93.01341247558594 C 252.83396911621094 93.01341247558594 251.59063720703125 91.70674133300781 251.59063720703125 89.0934066772461 L 251.59063720703125 81.45340728759766 L 249.75064086914062 81.45340728759766 L 249.75064086914062 80.51341247558594 L 251.59063720703125 79.70340728759766 L 252.41064453125 76.96340942382812 L 253.54063415527344 76.96340942382812 L 253.54063415527344 79.94340515136719 L 257.2706298828125 79.94340515136719 L 257.2706298828125 81.45340728759766 L 253.54063415527344 81.45340728759766 L 253.54063415527344 89.01341247558594 C 253.54063415527344 89.7867431640625 253.72396850585938 90.38007354736328 254.09063720703125 90.79341125488281 C 254.45730590820312 91.20674133300781 254.9606475830078 91.41340637207031 255.60064697265625 91.41340637207031 ZM 265.35235595703125 93.01341247558594 C 263.4523620605469 93.01341247558594 261.9523620605469 92.4367446899414 260.85235595703125 91.28340911865234 C 259.759033203125 90.13007354736328 259.2123718261719 88.52340698242188 259.2123718261719 86.46340942382812 C 259.2123718261719 84.39674377441406 259.72235107421875 82.75341033935547 260.74237060546875 81.53340911865234 C 261.7623596191406 80.31340789794922 263.1290283203125 79.70340728759766 264.8423767089844 79.70340728759766 C 266.4556884765625 79.70340728759766 267.7290344238281 80.23340606689453 268.662353515625 81.29341125488281 C 269.60235595703125 82.35340881347656 270.0723571777344 83.75007629394531 270.0723571777344 85.48340606689453 L 270.0723571777344 86.71340942382812 L 261.22235107421875 86.71340942382812 C 261.2623596191406 88.22007751464844 261.64569091796875 89.36341094970703 262.37237548828125 90.1434097290039 C 263.0923767089844 90.9300765991211 264.1090393066406 91.32341003417969 265.42236328125 91.32341003417969 C 266.8023681640625 91.32341003417969 268.1690368652344 91.03340911865234 269.5223693847656 90.45340728759766 L 269.5223693847656 92.18341064453125 C 268.835693359375 92.48340606689453 268.1856994628906 92.69673919677734 267.5723571777344 92.82341003417969 C 266.95904541015625 92.9500732421875 266.2190246582031 93.01341247558594 265.35235595703125 93.01341247558594 M 264.8223571777344 81.33341217041016 C 263.7890319824219 81.33341217041016 262.9656982421875 81.67007446289062 262.35235595703125 82.3434066772461 C 261.7390441894531 83.01673889160156 261.3790283203125 83.94673919677734 261.2723693847656 85.13340759277344 L 267.99237060546875 85.13340759277344 C 267.99237060546875 83.90673828125 267.7156982421875 82.96674346923828 267.162353515625 82.31340789794922 C 266.6156921386719 81.66007995605469 265.835693359375 81.33341217041016 264.8223571777344 81.33341217041016 ZM 276.4857482910156 86.21340942382812 L 272.0157470703125 79.94340515136719 L 274.2357482910156 79.94340515136719 L 277.6157531738281 84.86341094970703 L 280.9957580566406 79.94340515136719 L 283.18572998046875 79.94340515136719 L 278.71575927734375 86.21340942382812 L 283.4157409667969 92.78340911865234 L 281.21575927734375 92.78340911865234 L 277.6157531738281 87.58341217041016 L 273.9857482910156 92.78340911865234 L 271.7857360839844 92.78340911865234 L 276.4857482910156 86.21340942382812 ZM 290.1085510253906 91.41340637207031 C 290.4552307128906 91.41340637207031 290.78857421875 91.3867416381836 291.1085510253906 91.33341217041016 C 291.4285583496094 91.2867431640625 291.681884765625 91.23340606689453 291.8685607910156 91.17340850830078 L 291.8685607910156 92.66340637207031 C 291.65521240234375 92.77007293701172 291.34521484375 92.85340881347656 290.9385681152344 92.91340637207031 C 290.5252380371094 92.98007202148438 290.15521240234375 93.01341247558594 289.82855224609375 93.01341247558594 C 287.3418884277344 93.01341247558594 286.09857177734375 91.70674133300781 286.09857177734375 89.0934066772461 L 286.09857177734375 81.45340728759766 L 284.258544921875 81.45340728759766 L 284.258544921875 80.51341247558594 L 286.09857177734375 79.70340728759766 L 286.9185485839844 76.96340942382812 L 288.0485534667969 76.96340942382812 L 288.0485534667969 79.94340515136719 L 291.778564453125 79.94340515136719 L 291.778564453125 81.45340728759766 L 288.0485534667969 81.45340728759766 L 288.0485534667969 89.01341247558594 C 288.0485534667969 89.7867431640625 288.2319030761719 90.38007354736328 288.59857177734375 90.79341125488281 C 288.9652404785156 91.20674133300781 289.46856689453125 91.41340637207031 290.1085510253906 91.41340637207031 ZM 309.4540100097656 92.78340911865234 L 309.4540100097656 84.4734115600586 C 309.4540100097656 83.42674255371094 309.21734619140625 82.64674377441406 308.7440185546875 82.13340759277344 C 308.2640075683594 81.61341094970703 307.517333984375 81.35340881347656 306.5039978027344 81.35340881347656 C 305.1506652832031 81.35340881347656 304.16400146484375 81.7234115600586 303.54400634765625 82.46340942382812 C 302.92401123046875 83.19673919677734 302.614013671875 84.40007781982422 302.614013671875 86.07341003417969 L 302.614013671875 92.78340911865234 L 300.66400146484375 92.78340911865234 L 300.66400146484375 74.55340576171875 L 302.614013671875 74.55340576171875 L 302.614013671875 80.07341003417969 C 302.614013671875 80.73340606689453 302.5806579589844 81.28340911865234 302.5140075683594 81.7234115600586 L 302.6340026855469 81.7234115600586 C 303.0206604003906 81.10340881347656 303.56732177734375 80.61674499511719 304.2740173339844 80.26341247558594 C 304.9806823730469 79.91007995605469 305.7873229980469 79.73340606689453 306.6940002441406 79.73340606689453 C 308.26068115234375 79.73340606689453 309.4373474121094 80.10340881347656 310.2239990234375 80.8434066772461 C 311.01068115234375 81.59007263183594 311.40399169921875 82.77674102783203 311.40399169921875 84.40341186523438 L 311.40399169921875 92.78340911865234 L 309.4540100097656 92.78340911865234 ZM 320.8228454589844 93.01341247558594 C 318.9228515625 93.01341247558594 317.4228515625 92.4367446899414 316.3228454589844 91.28340911865234 C 315.2295227050781 90.13007354736328 314.682861328125 88.52340698242188 314.682861328125 86.46340942382812 C 314.682861328125 84.39674377441406 315.1928405761719 82.75341033935547 316.2128601074219 81.53340911865234 C 317.23284912109375 80.31340789794922 318.5995178222656 79.70340728759766 320.3128662109375 79.70340728759766 C 321.9261779785156 79.70340728759766 323.19952392578125 80.23340606689453 324.1328430175781 81.29341125488281 C 325.0728454589844 82.35340881347656 325.5428466796875 83.75007629394531 325.5428466796875 85.48340606689453 L 325.5428466796875 86.71340942382812 L 316.6928405761719 86.71340942382812 C 316.73284912109375 88.22007751464844 317.1161804199219 89.36341094970703 317.8428649902344 90.1434097290039 C 318.5628662109375 90.9300765991211 319.57952880859375 91.32341003417969 320.8928527832031 91.32341003417969 C 322.2728576660156 91.32341003417969 323.6395263671875 91.03340911865234 324.99285888671875 90.45340728759766 L 324.99285888671875 92.18341064453125 C 324.3061828613281 92.48340606689453 323.65618896484375 92.69673919677734 323.0428466796875 92.82341003417969 C 322.4295349121094 92.9500732421875 321.68951416015625 93.01341247558594 320.8228454589844 93.01341247558594 M 320.2928466796875 81.33341217041016 C 319.259521484375 81.33341217041016 318.4361877441406 81.67007446289062 317.8228454589844 82.3434066772461 C 317.20953369140625 83.01673889160156 316.8495178222656 83.94673919677734 316.74285888671875 85.13340759277344 L 323.4628601074219 85.13340759277344 C 323.4628601074219 83.90673828125 323.1861877441406 82.96674346923828 322.6328430175781 82.31340789794922 C 322.086181640625 81.66007995605469 321.3061828613281 81.33341217041016 320.2928466796875 81.33341217041016 ZM 334.7162170410156 79.70340728759766 C 335.28955078125 79.70340728759766 335.8028564453125 79.75007629394531 336.2561950683594 79.8434066772461 L 335.9862060546875 81.65341186523438 C 335.452880859375 81.53340911865234 334.9828796386719 81.4734115600586 334.5762023925781 81.4734115600586 C 333.53619384765625 81.4734115600586 332.6495361328125 81.89674377441406 331.91619873046875 82.743408203125 C 331.17620849609375 83.58341217041016 330.80621337890625 84.63340759277344 330.80621337890625 85.8934097290039 L 330.80621337890625 92.78340911865234 L 328.856201171875 92.78340911865234 L 328.856201171875 79.94340515136719 L 330.4662170410156 79.94340515136719 L 330.68621826171875 82.32341003417969 L 330.7762145996094 82.32341003417969 C 331.2561950683594 81.48340606689453 331.8328857421875 80.83674621582031 332.5061950683594 80.38340759277344 C 333.1728820800781 79.9300765991211 333.9095458984375 79.70340728759766 334.7162170410156 79.70340728759766 ZM 344.08203125 93.01341247558594 C 342.1820373535156 93.01341247558594 340.6820373535156 92.4367446899414 339.58203125 91.28340911865234 C 338.48870849609375 90.13007354736328 337.9420471191406 88.52340698242188 337.9420471191406 86.46340942382812 C 337.9420471191406 84.39674377441406 338.4520263671875 82.75341033935547 339.4720458984375 81.53340911865234 C 340.4920349121094 80.31340789794922 341.85870361328125 79.70340728759766 343.5720520019531 79.70340728759766 C 345.18536376953125 79.70340728759766 346.4587097167969 80.23340606689453 347.39202880859375 81.29341125488281 C 348.33203125 82.35340881347656 348.8020324707031 83.75007629394531 348.8020324707031 85.48340606689453 L 348.8020324707031 86.71340942382812 L 339.9520263671875 86.71340942382812 C 339.9920349121094 88.22007751464844 340.3753662109375 89.36341094970703 341.10205078125 90.1434097290039 C 341.8220520019531 90.9300765991211 342.8387145996094 91.32341003417969 344.15203857421875 91.32341003417969 C 345.53204345703125 91.32341003417969 346.8987121582031 91.03340911865234 348.2520446777344 90.45340728759766 L 348.2520446777344 92.18341064453125 C 347.56536865234375 92.48340606689453 346.9153747558594 92.69673919677734 346.3020324707031 92.82341003417969 C 345.688720703125 92.9500732421875 344.9486999511719 93.01341247558594 344.08203125 93.01341247558594 M 343.5520324707031 81.33341217041016 C 342.5187072753906 81.33341217041016 341.69537353515625 81.67007446289062 341.08203125 82.3434066772461 C 340.4687194824219 83.01673889160156 340.10870361328125 83.94673919677734 340.0020446777344 85.13340759277344 L 346.7220458984375 85.13340759277344 C 346.7220458984375 83.90673828125 346.44537353515625 82.96674346923828 345.89202880859375 82.31340789794922 C 345.3453674316406 81.66007995605469 344.56536865234375 81.33341217041016 343.5520324707031 81.33341217041016 Z" transform="matrix(1, 0, 0, 1, 0, 0)" style="fill: rgb(51, 51, 51); white-space: pre; color: rgb(51, 51, 51);"/><path d="M 59.49121856689453 89.78340911865234 L 49.941219329833984 89.78340911865234 L 49.941219329833984 72.65341186523438 L 59.49121856689453 72.65341186523438 L 59.49121856689453 74.42340850830078 L 51.931217193603516 74.42340850830078 L 51.931217193603516 79.94340515136719 L 59.031219482421875 79.94340515136719 L 59.031219482421875 81.69340515136719 L 51.931217193603516 81.69340515136719 L 51.931217193603516 88.00341033935547 L 59.49121856689453 88.00341033935547 L 59.49121856689453 89.78340911865234 ZM 71.77741241455078 89.78340911865234 L 71.77741241455078 81.4734115600586 C 71.77741241455078 80.42674255371094 71.54074096679688 79.64674377441406 71.06741333007812 79.13340759277344 C 70.58740997314453 78.61341094970703 69.84074401855469 78.35340881347656 68.82740783691406 78.35340881347656 C 67.48074340820312 78.35340881347656 66.4974136352539 78.71674346923828 65.87741088867188 79.44340515136719 C 65.25074005126953 80.17007446289062 64.93740844726562 81.37007904052734 64.93740844726562 83.04341125488281 L 64.93740844726562 89.78340911865234 L 62.98741149902344 89.78340911865234 L 62.98741149902344 76.94340515136719 L 64.56741333007812 76.94340515136719 L 64.88741302490234 78.69340515136719 L 64.97740936279297 78.69340515136719 C 65.37741088867188 78.06007385253906 65.93740844726562 77.57007598876953 66.65740966796875 77.2234115600586 C 67.37741088867188 76.87673950195312 68.17741394042969 76.70340728759766 69.05741119384766 76.70340728759766 C 70.60408020019531 76.70340728759766 71.77074432373047 77.07674407958984 72.55741119384766 77.82341003417969 C 73.33740997314453 78.57007598876953 73.72740936279297 79.76341247558594 73.72740936279297 81.40341186523438 L 73.72740936279297 89.78340911865234 L 71.77741241455078 89.78340911865234 ZM 81.86626434326172 88.41340637207031 C 82.21292877197266 88.41340637207031 82.5462646484375 88.3867416381836 82.86626434326172 88.33341217041016 C 83.18626403808594 88.2867431640625 83.4395980834961 88.23340606689453 83.62626647949219 88.17340850830078 L 83.62626647949219 89.66340637207031 C 83.41293334960938 89.77007293701172 83.10293579101562 89.85340881347656 82.6962661743164 89.91340637207031 C 82.28292846679688 89.98007202148438 81.91293334960938 90.01341247558594 81.58626556396484 90.01341247558594 C 79.09960174560547 90.01341247558594 77.85626220703125 88.70674133300781 77.85626220703125 86.0934066772461 L 77.85626220703125 78.45340728759766 L 76.01626586914062 78.45340728759766 L 76.01626586914062 77.51341247558594 L 77.85626220703125 76.70340728759766 L 78.67626190185547 73.96340942382812 L 79.80626678466797 73.96340942382812 L 79.80626678466797 76.94340515136719 L 83.53626251220703 76.94340515136719 L 83.53626251220703 78.45340728759766 L 79.80626678466797 78.45340728759766 L 79.80626678466797 86.01341247558594 C 79.80626678466797 86.7867431640625 79.9896011352539 87.38007354736328 80.35626220703125 87.79341125488281 C 80.72293090820312 88.20674133300781 81.22626495361328 88.41340637207031 81.86626434326172 88.41340637207031 ZM 91.61798858642578 90.01341247558594 C 89.71798706054688 90.01341247558594 88.21798706054688 89.4367446899414 87.11798858642578 88.28340911865234 C 86.024658203125 87.13007354736328 85.47798919677734 85.52340698242188 85.47798919677734 83.46340942382812 C 85.47798919677734 81.39674377441406 85.98799133300781 79.75341033935547 87.00798797607422 78.53340911865234 C 88.02799224853516 77.31340789794922 89.39466094970703 76.70340728759766 91.10799407958984 76.70340728759766 C 92.72132110595703 76.70340728759766 93.99465942382812 77.23340606689453 94.92799377441406 78.29341125488281 C 95.86798858642578 79.35340881347656 96.3379898071289 80.75007629394531 96.3379898071289 82.48340606689453 L 96.3379898071289 83.71340942382812 L 87.48799133300781 83.71340942382812 C 87.52799224853516 85.22007751464844 87.91132354736328 86.36341094970703 88.63799285888672 87.1434097290039 C 89.35799407958984 87.9300765991211 90.3746566772461 88.32341003417969 91.68798828125 88.32341003417969 C 93.0679931640625 88.32341003417969 94.43465423583984 88.03340911865234 95.78799438476562 87.45340728759766 L 95.78799438476562 89.18341064453125 C 95.10132598876953 89.48340606689453 94.45132446289062 89.69673919677734 93.8379898071289 89.82341003417969 C 93.22465515136719 89.9500732421875 92.48465728759766 90.01341247558594 91.61798858642578 90.01341247558594 M 91.0879898071289 78.33341217041016 C 90.05465698242188 78.33341217041016 89.2313232421875 78.67007446289062 88.61798858642578 79.3434066772461 C 88.00465393066406 80.01673889160156 87.64466094970703 80.94673919677734 87.53799438476562 82.13340759277344 L 94.25798797607422 82.13340759277344 C 94.25798797607422 80.90673828125 93.9813232421875 79.96674346923828 93.42799377441406 79.31340789794922 C 92.8813247680664 78.66007995605469 92.10132598876953 78.33341217041016 91.0879898071289 78.33341217041016 ZM 105.5113525390625 76.70340728759766 C 106.08468627929688 76.70340728759766 106.5980224609375 76.75007629394531 107.05135345458984 76.8434066772461 L 106.78135681152344 78.65341186523438 C 106.2480239868164 78.53340911865234 105.77802276611328 78.4734115600586 105.37135314941406 78.4734115600586 C 104.33135223388672 78.4734115600586 103.44468688964844 78.89674377441406 102.71135711669922 79.743408203125 C 101.97135162353516 80.58341217041016 101.60135650634766 81.63340759277344 101.60135650634766 82.8934097290039 L 101.60135650634766 89.78340911865234 L 99.65135192871094 89.78340911865234 L 99.65135192871094 76.94340515136719 L 101.2613525390625 76.94340515136719 L 101.48135375976562 79.32341003417969 L 101.57135772705078 79.32341003417969 C 102.05135345458984 78.48340606689453 102.62802124023438 77.83674621582031 103.30135345458984 77.38340759277344 C 103.968017578125 76.9300765991211 104.7046890258789 76.70340728759766 105.5113525390625 76.70340728759766 ZM 113.64083099365234 76.94340515136719 L 115.7308349609375 76.94340515136719 L 118.54083251953125 84.26341247558594 C 119.16083526611328 85.9367446899414 119.5441665649414 87.1434097290039 119.69083404541016 87.88340759277344 L 119.78083801269531 87.88340759277344 C 119.88750457763672 87.48340606689453 120.10083770751953 86.80340576171875 120.42083740234375 85.8434066772461 C 120.74749755859375 84.87673950195312 121.80750274658203 81.91007232666016 123.600830078125 76.94340515136719 L 125.69083404541016 76.94340515136719 L 120.17083740234375 91.56340789794922 C 119.6241683959961 93.01007843017578 118.98416900634766 94.0367431640625 118.2508316040039 94.6434097290039 C 117.524169921875 95.25007629394531 116.6308364868164 95.55340576171875 115.57083129882812 95.55340576171875 C 114.97083282470703 95.55340576171875 114.38417053222656 95.48674011230469 113.81083679199219 95.35340881347656 L 113.81083679199219 93.79341125488281 C 114.23750305175781 93.8867416381836 114.71749877929688 93.93341064453125 115.2508316040039 93.93341064453125 C 116.58416748046875 93.93341064453125 117.5374984741211 93.18341064453125 118.11083221435547 91.68341064453125 L 118.82083129882812 89.85340881347656 L 113.64083099365234 76.94340515136719 ZM 138.86325073242188 83.35340881347656 C 138.86325073242188 85.44673919677734 138.3365936279297 87.080078125 137.28326416015625 88.25341033935547 C 136.22325134277344 89.42674255371094 134.76658630371094 90.01341247558594 132.9132537841797 90.01341247558594 C 131.75991821289062 90.01341247558594 130.73992919921875 89.74674224853516 129.85325622558594 89.21340942382812 C 128.95993041992188 88.67340850830078 128.26992797851562 87.90007781982422 127.78325653076172 86.8934097290039 C 127.30325317382812 85.88007354736328 127.0632553100586 84.7000732421875 127.0632553100586 83.35340881347656 C 127.0632553100586 81.26007843017578 127.58659362792969 79.62673950195312 128.6332550048828 78.45340728759766 C 129.67991638183594 77.2867431640625 131.1332550048828 76.70340728759766 132.99325561523438 76.70340728759766 C 134.78659057617188 76.70340728759766 136.2132568359375 77.30007934570312 137.27325439453125 78.493408203125 C 138.333251953125 79.69340515136719 138.86325073242188 81.31340789794922 138.86325073242188 83.35340881347656 M 129.07325744628906 83.35340881347656 C 129.07325744628906 84.993408203125 129.40325927734375 86.243408203125 130.06326293945312 87.10340881347656 C 130.71658325195312 87.96340942382812 131.67991638183594 88.3934097290039 132.95326232910156 88.3934097290039 C 134.22659301757812 88.3934097290039 135.19325256347656 87.96340942382812 135.85325622558594 87.10340881347656 C 136.5132598876953 86.25007629394531 136.84326171875 85.00007629394531 136.84326171875 83.35340881347656 C 136.84326171875 81.72007751464844 136.5132598876953 80.48007202148438 135.85325622558594 79.63340759277344 C 135.19325256347656 78.78007507324219 134.2199249267578 78.35340881347656 132.93325805664062 78.35340881347656 C 131.65992736816406 78.35340881347656 130.69992065429688 78.77340698242188 130.05325317382812 79.61341094970703 C 129.39991760253906 80.44673919677734 129.07325744628906 81.69340515136719 129.07325744628906 83.35340881347656 ZM 144.09776306152344 76.94340515136719 L 144.09776306152344 85.27340698242188 C 144.09776306152344 86.32007598876953 144.3377685546875 87.1000747680664 144.81776428222656 87.61341094970703 C 145.2910919189453 88.13340759277344 146.034423828125 88.3934097290039 147.04776000976562 88.3934097290039 C 148.39442443847656 88.3934097290039 149.3777618408203 88.02340698242188 149.9977569580078 87.28340911865234 C 150.61776733398438 86.55007934570312 150.92776489257812 85.35340881347656 150.92776489257812 83.69340515136719 L 150.92776489257812 76.94340515136719 L 152.8777618408203 76.94340515136719 L 152.8777618408203 89.78340911865234 L 151.26776123046875 89.78340911865234 L 150.98776245117188 88.06340789794922 L 150.88775634765625 88.06340789794922 C 150.48776245117188 88.69673919677734 149.93443298339844 89.1800765991211 149.22776794433594 89.51341247558594 C 148.52110290527344 89.84674072265625 147.7144317626953 90.01341247558594 146.80776977539062 90.01341247558594 C 145.24110412597656 90.01341247558594 144.0710906982422 89.6434097290039 143.29776000976562 88.90341186523438 C 142.51776123046875 88.16340637207031 142.1277618408203 86.97674560546875 142.1277618408203 85.3434066772461 L 142.1277618408203 76.94340515136719 L 144.09776306152344 76.94340515136719 ZM 162.8566131591797 76.70340728759766 C 163.42994689941406 76.70340728759766 163.9432830810547 76.75007629394531 164.39662170410156 76.8434066772461 L 164.12661743164062 78.65341186523438 C 163.59327697753906 78.53340911865234 163.12327575683594 78.4734115600586 162.71661376953125 78.4734115600586 C 161.67662048339844 78.4734115600586 160.78994750976562 78.89674377441406 160.05661010742188 79.743408203125 C 159.31661987304688 80.58341217041016 158.9466094970703 81.63340759277344 158.9466094970703 82.8934097290039 L 158.9466094970703 89.78340911865234 L 156.99661254882812 89.78340911865234 L 156.99661254882812 76.94340515136719 L 158.6066131591797 76.94340515136719 L 158.8266143798828 79.32341003417969 L 158.91661071777344 79.32341003417969 C 159.39662170410156 78.48340606689453 159.97328186035156 77.83674621582031 160.64662170410156 77.38340759277344 C 161.3132781982422 76.9300765991211 162.04994201660156 76.70340728759766 162.8566131591797 76.70340728759766 ZM 177.17611694335938 88.41340637207031 C 177.5227813720703 88.41340637207031 177.85610961914062 88.3867416381836 178.17611694335938 88.33341217041016 C 178.49610900878906 88.2867431640625 178.74945068359375 88.23340606689453 178.9361114501953 88.17340850830078 L 178.9361114501953 89.66340637207031 C 178.7227783203125 89.77007293701172 178.41278076171875 89.85340881347656 178.006103515625 89.91340637207031 C 177.5927734375 89.98007202148438 177.2227783203125 90.01341247558594 176.89610290527344 90.01341247558594 C 174.40943908691406 90.01341247558594 173.16610717773438 88.70674133300781 173.16610717773438 86.0934066772461 L 173.16610717773438 78.45340728759766 L 171.32611083984375 78.45340728759766 L 171.32611083984375 77.51341247558594 L 173.16610717773438 76.70340728759766 L 173.98611450195312 73.96340942382812 L 175.11610412597656 73.96340942382812 L 175.11610412597656 76.94340515136719 L 178.8461151123047 76.94340515136719 L 178.8461151123047 78.45340728759766 L 175.11610412597656 78.45340728759766 L 175.11610412597656 86.01341247558594 C 175.11610412597656 86.7867431640625 175.2994384765625 87.38007354736328 175.66610717773438 87.79341125488281 C 176.03277587890625 88.20674133300781 176.53611755371094 88.41340637207031 177.17611694335938 88.41340637207031 ZM 186.92784118652344 90.01341247558594 C 185.02783203125 90.01341247558594 183.52783203125 89.4367446899414 182.42784118652344 88.28340911865234 C 181.33450317382812 87.13007354736328 180.787841796875 85.52340698242188 180.787841796875 83.46340942382812 C 180.787841796875 81.39674377441406 181.29783630371094 79.75341033935547 182.31784057617188 78.53340911865234 C 183.33782958984375 77.31340789794922 184.70449829101562 76.70340728759766 186.41783142089844 76.70340728759766 C 188.0311737060547 76.70340728759766 189.30450439453125 77.23340606689453 190.2378387451172 78.29341125488281 C 191.17784118652344 79.35340881347656 191.64784240722656 80.75007629394531 191.64784240722656 82.48340606689453 L 191.64784240722656 83.71340942382812 L 182.79783630371094 83.71340942382812 C 182.83782958984375 85.22007751464844 183.22117614746094 86.36341094970703 183.9478302001953 87.1434097290039 C 184.66783142089844 87.9300765991211 185.68450927734375 88.32341003417969 186.99783325195312 88.32341003417969 C 188.37783813476562 88.32341003417969 189.7445068359375 88.03340911865234 191.09783935546875 87.45340728759766 L 191.09783935546875 89.18341064453125 C 190.41116333007812 89.48340606689453 189.76116943359375 89.69673919677734 189.14784240722656 89.82341003417969 C 188.5345001220703 89.9500732421875 187.79449462890625 90.01341247558594 186.92784118652344 90.01341247558594 M 186.39784240722656 78.33341217041016 C 185.364501953125 78.33341217041016 184.54116821289062 78.67007446289062 183.92784118652344 79.3434066772461 C 183.3144989013672 80.01673889160156 182.95449829101562 80.94673919677734 182.84783935546875 82.13340759277344 L 189.56784057617188 82.13340759277344 C 189.56784057617188 80.90673828125 189.29116821289062 79.96674346923828 188.7378387451172 79.31340789794922 C 188.191162109375 78.66007995605469 187.41116333007812 78.33341217041016 186.39784240722656 78.33341217041016 ZM 198.0612030029297 83.21340942382812 L 193.59120178222656 76.94340515136719 L 195.8112030029297 76.94340515136719 L 199.19119262695312 81.86341094970703 L 202.57119750976562 76.94340515136719 L 204.76119995117188 76.94340515136719 L 200.29119873046875 83.21340942382812 L 204.99119567871094 89.78340911865234 L 202.79119873046875 89.78340911865234 L 199.19119262695312 84.58341217041016 L 195.5612030029297 89.78340911865234 L 193.3612060546875 89.78340911865234 L 198.0612030029297 83.21340942382812 ZM 211.6840362548828 88.41340637207031 C 212.03070068359375 88.41340637207031 212.36402893066406 88.3867416381836 212.6840362548828 88.33341217041016 C 213.0040283203125 88.2867431640625 213.2573699951172 88.23340606689453 213.44403076171875 88.17340850830078 L 213.44403076171875 89.66340637207031 C 213.23069763183594 89.77007293701172 212.9207000732422 89.85340881347656 212.51402282714844 89.91340637207031 C 212.10069274902344 89.98007202148438 211.73069763183594 90.01341247558594 211.40402221679688 90.01341247558594 C 208.9173583984375 90.01341247558594 207.6740264892578 88.70674133300781 207.6740264892578 86.0934066772461 L 207.6740264892578 78.45340728759766 L 205.8340301513672 78.45340728759766 L 205.8340301513672 77.51341247558594 L 207.6740264892578 76.70340728759766 L 208.49403381347656 73.96340942382812 L 209.6240234375 73.96340942382812 L 209.6240234375 76.94340515136719 L 213.35403442382812 76.94340515136719 L 213.35403442382812 78.45340728759766 L 209.6240234375 78.45340728759766 L 209.6240234375 86.01341247558594 C 209.6240234375 86.7867431640625 209.80735778808594 87.38007354736328 210.1740264892578 87.79341125488281 C 210.5406951904297 88.20674133300781 211.04403686523438 88.41340637207031 211.6840362548828 88.41340637207031 ZM 231.0294647216797 89.78340911865234 L 231.0294647216797 81.4734115600586 C 231.0294647216797 80.42674255371094 230.79278564453125 79.64674377441406 230.3194580078125 79.13340759277344 C 229.83946228027344 78.61341094970703 229.09278869628906 78.35340881347656 228.07945251464844 78.35340881347656 C 226.7261199951172 78.35340881347656 225.7394561767578 78.7234115600586 225.1194610595703 79.46340942382812 C 224.4994659423828 80.19673919677734 224.189453125 81.40007781982422 224.189453125 83.07341003417969 L 224.189453125 89.78340911865234 L 222.2394561767578 89.78340911865234 L 222.2394561767578 71.55340576171875 L 224.189453125 71.55340576171875 L 224.189453125 77.07341003417969 C 224.189453125 77.73340606689453 224.1561279296875 78.28340911865234 224.08946228027344 78.7234115600586 L 224.20945739746094 78.7234115600586 C 224.59613037109375 78.10340881347656 225.14279174804688 77.61674499511719 225.84945678710938 77.26341247558594 C 226.55612182617188 76.91007995605469 227.36279296875 76.73340606689453 228.2694549560547 76.73340606689453 C 229.83612060546875 76.73340606689453 231.01278686523438 77.10340881347656 231.79945373535156 77.8434066772461 C 232.58612060546875 78.59007263183594 232.97946166992188 79.77674102783203 232.97946166992188 81.40341186523438 L 232.97946166992188 89.78340911865234 L 231.0294647216797 89.78340911865234 ZM 242.39833068847656 90.01341247558594 C 240.49832153320312 90.01341247558594 238.99832153320312 89.4367446899414 237.89833068847656 88.28340911865234 C 236.80499267578125 87.13007354736328 236.25833129882812 85.52340698242188 236.25833129882812 83.46340942382812 C 236.25833129882812 81.39674377441406 236.76832580566406 79.75341033935547 237.788330078125 78.53340911865234 C 238.80831909179688 77.31340789794922 240.17498779296875 76.70340728759766 241.88832092285156 76.70340728759766 C 243.5016632080078 76.70340728759766 244.77499389648438 77.23340606689453 245.7083282470703 78.29341125488281 C 246.64833068847656 79.35340881347656 247.1183319091797 80.75007629394531 247.1183319091797 82.48340606689453 L 247.1183319091797 83.71340942382812 L 238.26832580566406 83.71340942382812 C 238.30831909179688 85.22007751464844 238.69166564941406 86.36341094970703 239.41831970214844 87.1434097290039 C 240.13832092285156 87.9300765991211 241.15499877929688 88.32341003417969 242.46832275390625 88.32341003417969 C 243.84832763671875 88.32341003417969 245.21499633789062 88.03340911865234 246.56832885742188 87.45340728759766 L 246.56832885742188 89.18341064453125 C 245.88165283203125 89.48340606689453 245.23165893554688 89.69673919677734 244.6183319091797 89.82341003417969 C 244.00498962402344 89.9500732421875 243.26498413085938 90.01341247558594 242.39833068847656 90.01341247558594 M 241.8683319091797 78.33341217041016 C 240.83499145507812 78.33341217041016 240.01165771484375 78.67007446289062 239.39833068847656 79.3434066772461 C 238.7849884033203 80.01673889160156 238.42498779296875 80.94673919677734 238.31832885742188 82.13340759277344 L 245.038330078125 82.13340759277344 C 245.038330078125 80.90673828125 244.76165771484375 79.96674346923828 244.2083282470703 79.31340789794922 C 243.66165161132812 78.66007995605469 242.88165283203125 78.33341217041016 241.8683319091797 78.33341217041016 ZM 256.29168701171875 76.70340728759766 C 256.8650207519531 76.70340728759766 257.37835693359375 76.75007629394531 257.8316955566406 76.8434066772461 L 257.5616760253906 78.65341186523438 C 257.0283508300781 78.53340911865234 256.558349609375 78.4734115600586 256.1517028808594 78.4734115600586 C 255.1116943359375 78.4734115600586 254.2250213623047 78.89674377441406 253.49168395996094 79.743408203125 C 252.75169372558594 80.58341217041016 252.38168334960938 81.63340759277344 252.38168334960938 82.8934097290039 L 252.38168334960938 89.78340911865234 L 250.4316864013672 89.78340911865234 L 250.4316864013672 76.94340515136719 L 252.04168701171875 76.94340515136719 L 252.26168823242188 79.32341003417969 L 252.3516845703125 79.32341003417969 C 252.83169555664062 78.48340606689453 253.40835571289062 77.83674621582031 254.08169555664062 77.38340759277344 C 254.74835205078125 76.9300765991211 255.48501586914062 76.70340728759766 256.29168701171875 76.70340728759766 ZM 265.657470703125 90.01341247558594 C 263.7574768066406 90.01341247558594 262.2574768066406 89.4367446899414 261.157470703125 88.28340911865234 C 260.06414794921875 87.13007354736328 259.5174865722656 85.52340698242188 259.5174865722656 83.46340942382812 C 259.5174865722656 81.39674377441406 260.0274658203125 79.75341033935547 261.0474853515625 78.53340911865234 C 262.0674743652344 77.31340789794922 263.43414306640625 76.70340728759766 265.1474914550781 76.70340728759766 C 266.76080322265625 76.70340728759766 268.0341491699219 77.23340606689453 268.96746826171875 78.29341125488281 C 269.907470703125 79.35340881347656 270.3774719238281 80.75007629394531 270.3774719238281 82.48340606689453 L 270.3774719238281 83.71340942382812 L 261.5274658203125 83.71340942382812 C 261.5674743652344 85.22007751464844 261.9508056640625 86.36341094970703 262.677490234375 87.1434097290039 C 263.3974914550781 87.9300765991211 264.4141540527344 88.32341003417969 265.72747802734375 88.32341003417969 C 267.10748291015625 88.32341003417969 268.4741516113281 88.03340911865234 269.8274841308594 87.45340728759766 L 269.8274841308594 89.18341064453125 C 269.14080810546875 89.48340606689453 268.4908142089844 89.69673919677734 267.8774719238281 89.82341003417969 C 267.26416015625 89.9500732421875 266.5241394042969 90.01341247558594 265.657470703125 90.01341247558594 M 265.1274719238281 78.33341217041016 C 264.0941467285156 78.33341217041016 263.27081298828125 78.67007446289062 262.657470703125 79.3434066772461 C 262.0441589355469 80.01673889160156 261.68414306640625 80.94673919677734 261.5774841308594 82.13340759277344 L 268.2974853515625 82.13340759277344 C 268.2974853515625 80.90673828125 268.02081298828125 79.96674346923828 267.46746826171875 79.31340789794922 C 266.9208068847656 78.66007995605469 266.14080810546875 78.33341217041016 265.1274719238281 78.33341217041016 Z" transform="matrix(1, 0, 0, 1, 0, 0)" style="fill: rgb(51, 51, 51); white-space: pre; color: rgb(51, 51, 51);"/><path d="M 16.144641876220703 39.10935592651367 C 15.771308898925781 39.55602264404297 15.24464225769043 39.90269088745117 14.564641952514648 40.149356842041016 C 13.884641647338867 40.39602279663086 13.127975463867188 40.51935577392578 12.294641494750977 40.51935577392578 C 11.427974700927734 40.51935577392578 10.667975425720215 40.3293571472168 10.014641761779785 39.94935607910156 C 9.354641914367676 39.56935501098633 8.84797477722168 39.01935577392578 8.49464225769043 38.299354553222656 C 8.134641647338867 37.572689056396484 7.951308727264404 36.72269058227539 7.944642066955566 35.74935531616211 L 7.944642066955566 35.06935501098633 C 7.944642066955566 34.06269073486328 8.114642143249512 33.19268798828125 8.454642295837402 32.45935821533203 C 8.787975311279297 31.726022720336914 9.274641990661621 31.16602325439453 9.914642333984375 30.779356002807617 C 10.554641723632812 30.386024475097656 11.301308631896973 30.18935775756836 12.154642105102539 30.18935775756836 C 13.34797477722168 30.18935775756836 14.277975082397461 30.47269058227539 14.944642066955566 31.039356231689453 C 15.617975234985352 31.612689971923828 16.017974853515625 32.44268798828125 16.144641876220703 33.52935791015625 L 14.124641418457031 33.52935791015625 C 14.037975311279297 32.94935607910156 13.83464241027832 32.526023864746094 13.514641761779785 32.25935745239258 C 13.201309204101562 31.992691040039062 12.767974853515625 31.859355926513672 12.214641571044922 31.859355926513672 C 11.514641761779785 31.859355926513672 10.977975845336914 32.12602233886719 10.604641914367676 32.65935516357422 C 10.237975120544434 33.1860237121582 10.051308631896973 33.97269058227539 10.044641494750977 35.01935577392578 L 10.044641494750977 35.65935516357422 C 10.044641494750977 36.71268844604492 10.24464225769043 37.50935745239258 10.644641876220703 38.049354553222656 C 11.051308631896973 38.58269119262695 11.637975692749023 38.84935760498047 12.404642105102539 38.84935760498047 C 13.18464183807373 38.84935760498047 13.741308212280273 38.6860237121582 14.074642181396484 38.35935592651367 L 14.074642181396484 36.629356384277344 L 12.18464183807373 36.629356384277344 L 12.18464183807373 35.09935760498047 L 16.144641876220703 35.09935760498047 L 16.144641876220703 39.10935592651367 ZM 20.02275848388672 40.379356384277344 L 17.9527587890625 40.379356384277344 L 17.9527587890625 30.329357147216797 L 20.02275848388672 30.329357147216797 L 20.02275848388672 40.379356384277344 ZM 27.983177185058594 36.26935577392578 L 24.01317596435547 36.26935577392578 L 24.01317596435547 40.379356384277344 L 21.94317626953125 40.379356384277344 L 21.94317626953125 30.329357147216797 L 28.483177185058594 30.329357147216797 L 28.483177185058594 32.00935745239258 L 24.01317596435547 32.00935745239258 L 24.01317596435547 34.59935760498047 L 27.983177185058594 34.59935760498047 L 27.983177185058594 36.26935577392578 ZM 37.93708038330078 35.5793571472168 C 37.93708038330078 36.572689056396484 37.76374816894531 37.44268798828125 37.41707992553711 38.18935775756836 C 37.06374740600586 38.92935562133789 36.56374740600586 39.502689361572266 35.91707992553711 39.90935516357422 C 35.26374816894531 40.31602478027344 34.51708221435547 40.51935577392578 33.67708206176758 40.51935577392578 C 32.843746185302734 40.51935577392578 32.10041427612305 40.31935501098633 31.447080612182617 39.91935729980469 C 30.793746948242188 39.51935577392578 30.287080764770508 38.946022033691406 29.927080154418945 38.19935607910156 C 29.567081451416016 37.45935821533203 29.383747100830078 36.606021881103516 29.3770809173584 35.63935852050781 L 29.3770809173584 35.13935852050781 C 29.3770809173584 34.15269088745117 29.55708122253418 33.28268814086914 29.91707992553711 32.52935791015625 C 30.270414352416992 31.776023864746094 30.773746490478516 31.199356079101562 31.427080154418945 30.79935646057129 C 32.080413818359375 30.392688751220703 32.82374572753906 30.18935775756836 33.657081604003906 30.18935775756836 C 34.4970817565918 30.18935775756836 35.24374771118164 30.392688751220703 35.89707946777344 30.79935646057129 C 36.54374694824219 31.199356079101562 37.047080993652344 31.776023864746094 37.407081604003906 32.52935791015625 C 37.760414123535156 33.28268814086914 37.93708038330078 34.149356842041016 37.93708038330078 35.129356384277344 L 37.93708038330078 35.5793571472168 M 35.83708190917969 35.129356384277344 C 35.83708190917969 34.07602310180664 35.650413513183594 33.276023864746094 35.27708053588867 32.72935485839844 C 34.89707946777344 32.176025390625 34.35708236694336 31.899356842041016 33.657081604003906 31.899356842041016 C 32.963748931884766 31.899356842041016 32.42708206176758 32.16935729980469 32.047080993652344 32.70935821533203 C 31.673748016357422 33.25602340698242 31.483747482299805 34.049354553222656 31.477081298828125 35.08935546875 L 31.477081298828125 35.5793571472168 C 31.477081298828125 36.606021881103516 31.66707992553711 37.40269088745117 32.047080993652344 37.969356536865234 C 32.420413970947266 38.5360221862793 32.963748931884766 38.81935501098633 33.67708206176758 38.81935501098633 C 34.37041473388672 38.81935501098633 34.90374755859375 38.546024322509766 35.27708053588867 37.99935531616211 C 35.650413513183594 37.45269012451172 35.83708190917969 36.65935516357422 35.83708190917969 35.619354248046875 L 35.83708190917969 35.129356384277344 ZM 44.656333923339844 37.739356994628906 C 44.656333923339844 37.352691650390625 44.516334533691406 37.05268859863281 44.236331939697266 36.83935546875 C 43.9630012512207 36.6326904296875 43.466331481933594 36.412689208984375 42.746334075927734 36.17935562133789 C 42.03300094604492 35.946022033691406 41.466331481933594 35.71602249145508 41.04633331298828 35.489356994628906 C 39.906333923339844 34.87602233886719 39.336334228515625 34.046024322509766 39.336334228515625 32.99935531616211 C 39.336334228515625 32.45935821533203 39.48966598510742 31.976022720336914 39.79633331298828 31.54935646057129 C 40.09633255004883 31.12268829345703 40.53300094604492 30.789356231689453 41.1063346862793 30.54935646057129 C 41.67966842651367 30.309356689453125 42.322998046875 30.18935775756836 43.03633117675781 30.18935775756836 C 43.75633239746094 30.18935775756836 44.396331787109375 30.319355010986328 44.95633316040039 30.579357147216797 C 45.516334533691406 30.83935546875 45.952999114990234 31.206024169921875 46.266334533691406 31.67935562133789 C 46.57966613769531 32.15269088745117 46.736331939697266 32.69268798828125 46.736331939697266 33.299354553222656 L 44.66633224487305 33.299354553222656 C 44.66633224487305 32.83935546875 44.51966857910156 32.47935485839844 44.22633361816406 32.219356536865234 C 43.939666748046875 31.966022491455078 43.53300094604492 31.83935546875 43.00633239746094 31.83935546875 C 42.49966812133789 31.83935546875 42.1063346862793 31.946022033691406 41.826332092285156 32.15935516357422 C 41.54633331298828 32.37268829345703 41.406333923339844 32.65602111816406 41.406333923339844 33.00935745239258 C 41.406333923339844 33.336021423339844 41.56966781616211 33.60935592651367 41.896331787109375 33.8293571472168 C 42.222999572753906 34.049354553222656 42.70633316040039 34.25602340698242 43.34633255004883 34.44935607910156 C 44.52633285522461 34.80268859863281 45.38633346557617 35.24269104003906 45.926334381103516 35.76935577392578 C 46.466331481933594 36.296024322509766 46.736331939697266 36.94935607910156 46.736331939697266 37.72935485839844 C 46.736331939697266 38.59602355957031 46.406333923339844 39.27935791015625 45.746334075927734 39.77935791015625 C 45.086334228515625 40.27268981933594 44.19966506958008 40.51935577392578 43.086334228515625 40.51935577392578 C 42.3129997253418 40.51935577392578 41.60966491699219 40.37602233886719 40.97633361816406 40.08935546875 C 40.34299850463867 39.809356689453125 39.85966491699219 39.422691345214844 39.52633285522461 38.92935562133789 C 39.19300079345703 38.4360237121582 39.02633285522461 37.866024017333984 39.02633285522461 37.219356536865234 L 41.09633255004883 37.219356536865234 C 41.09633255004883 38.32602310180664 41.759666442871094 38.879356384277344 43.086334228515625 38.879356384277344 C 43.57966613769531 38.879356384277344 43.9630012512207 38.77935791015625 44.236331939697266 38.5793571472168 C 44.516334533691406 38.379356384277344 44.656333923339844 38.09935760498047 44.656333923339844 37.739356994628906 Z" transform="matrix(1.083996057510376, 0, 0, 1.083996057510376, 0.7312901020050049, -9.060805320739746)" style="fill: rgb(87, 46, 229); white-space: pre; color: rgb(51, 51, 51);"/></g></svg>