<?xml version="1.0" encoding="utf-8"?>
<svg id="master-artboard" viewBox="0 0 15.8 15.800000190734863" version="1.1" xmlns="http://www.w3.org/2000/svg" x="0px" y="0px" style="enable-background:new 0 0 1400 980;" width="15.800000190734863px" height="15.800000190734863px" xmlns:xlink="http://www.w3.org/1999/xlink"><defs><path d="M8.5,0 C13.1944204,0 17,3.80557963 17,8.5 C17,10.4865245 16.3185332,12.3138839 15.1766205,13.7610573 L19.7071068,18.2928932 C20.0976311,18.6834175 20.0976311,19.3165825 19.7071068,19.7071068 C19.3165825,20.0976311 18.6834175,20.0976311 18.2928932,19.7071068 L18.2928932,19.7071068 L13.7610573,15.1766205 C12.3138839,16.3185332 10.4865245,17 8.5,17 C3.80557963,17 0,13.1944204 0,8.5 C0,3.80557963 3.80557963,0 8.5,0 Z M8.5,2 C4.91014913,2 2,4.91014913 2,8.5 C2,12.0898509 4.91014913,15 8.5,15 C10.2704128,15 11.8755097,14.2921984 13.0477521,13.1441339 L13.0928932,13.0928932 C13.1090201,13.0767663 13.1255608,13.0613054 13.1424811,13.0465104 C14.2921984,11.8755097 15,10.2704128 15,8.5 C15,4.91014913 12.0898509,2 8.5,2 Z" id="path-1"/></defs><rect id="ee-background" x="0" y="0" width="15.800000190734863" height="15.800000190734863" style="fill: white; fill-opacity: 1; pointer-events: none;"/>


<g transform="matrix(0.7749999783541028, 0, 0, 0.775000124228626, 0.0725555419921875, -9.86547775028157e-7)"><title>icon-search</title><desc>Created with Sketch.</desc><g id="GIFOS" stroke="none" stroke-width="1" fill="none" fill-rule="evenodd">
        <g id="00-UI-Kit" transform="translate(-637.000000, -518.000000)">
            <g id="-Nav-Desktop-Sticky" transform="translate(0.000000, 479.000000)">
                <g id="icon-search" transform="translate(637.000000, 39.000000)">
                    <mask id="mask-2" fill="white">
                        <use xlink:href="#path-1"/>
                    </mask>
                    <use fill="#572EE5" fill-rule="nonzero" style="fill: rgb(156, 175, 195);" xlink:href="#path-1"/>
                </g>
            </g>
        </g>
    </g></g></svg>